<mxfile host="Electron" agent="Mozilla/5.0 (Windows NT 10.0; Win64; x64) AppleWebKit/537.36 (KHTML, like Gecko) draw.io/22.0.3 Chrome/114.0.5735.289 Electron/25.8.4 Safari/537.36" modified="2024-10-22T10:34:59.324Z" version="22.0.3" etag="ySRLPuNznEC75KmaE6Ns" type="device">
  <diagram name="第 1 页" id="_W_UU3THlxLHFnAgDz7l">
    <mxGraphModel dx="941" dy="1813" grid="1" gridSize="10" guides="1" tooltips="1" connect="1" arrows="1" fold="1" page="1" pageScale="1" pageWidth="827" pageHeight="1169" math="0" shadow="0">
      <root>
        <mxCell id="0" />
        <mxCell id="1" parent="0" />
        <mxCell id="W-EiwBfrbXmSW31yWyGR-8" value="" style="rounded=0;whiteSpace=wrap;html=1;fillColor=none;" parent="1" vertex="1">
          <mxGeometry x="1100" y="149" width="400" height="290" as="geometry" />
        </mxCell>
        <mxCell id="W-EiwBfrbXmSW31yWyGR-9" value="User" style="shape=umlActor;verticalLabelPosition=bottom;verticalAlign=top;html=1;" parent="1" vertex="1">
          <mxGeometry x="1010" y="189" width="30" height="60" as="geometry" />
        </mxCell>
        <mxCell id="W-EiwBfrbXmSW31yWyGR-10" style="edgeStyle=orthogonalEdgeStyle;rounded=0;orthogonalLoop=1;jettySize=auto;html=1;exitX=0.5;exitY=0;exitDx=0;exitDy=0;exitPerimeter=0;endArrow=block;endFill=0;endSize=15;" parent="1" source="W-EiwBfrbXmSW31yWyGR-11" edge="1">
          <mxGeometry relative="1" as="geometry">
            <mxPoint x="1025" y="279" as="targetPoint" />
          </mxGeometry>
        </mxCell>
        <mxCell id="W-EiwBfrbXmSW31yWyGR-11" value="VIP" style="shape=umlActor;verticalLabelPosition=bottom;verticalAlign=top;html=1;" parent="1" vertex="1">
          <mxGeometry x="1010" y="369" width="30" height="60" as="geometry" />
        </mxCell>
        <mxCell id="W-EiwBfrbXmSW31yWyGR-12" value="" style="html=1;verticalAlign=bottom;endArrow=none;curved=0;rounded=0;endFill=0;entryX=0;entryY=0.5;entryDx=0;entryDy=0;" parent="1" target="W-EiwBfrbXmSW31yWyGR-20" edge="1">
          <mxGeometry width="80" relative="1" as="geometry">
            <mxPoint x="1050" y="219" as="sourcePoint" />
            <mxPoint x="1140" y="219" as="targetPoint" />
          </mxGeometry>
        </mxCell>
        <mxCell id="W-EiwBfrbXmSW31yWyGR-13" value="" style="endArrow=none;html=1;rounded=0;endFill=0;entryX=0.5;entryY=1;entryDx=0;entryDy=0;" parent="1" target="W-EiwBfrbXmSW31yWyGR-20" edge="1">
          <mxGeometry width="50" height="50" relative="1" as="geometry">
            <mxPoint x="1050" y="399" as="sourcePoint" />
            <mxPoint x="1140" y="399" as="targetPoint" />
          </mxGeometry>
        </mxCell>
        <mxCell id="W-EiwBfrbXmSW31yWyGR-16" value="System" style="shape=umlActor;verticalLabelPosition=bottom;verticalAlign=top;html=1;outlineConnect=0;" parent="1" vertex="1">
          <mxGeometry x="1570" y="254" width="30" height="60" as="geometry" />
        </mxCell>
        <mxCell id="W-EiwBfrbXmSW31yWyGR-17" value="" style="endArrow=none;html=1;rounded=0;entryX=1;entryY=0.5;entryDx=0;entryDy=0;endFill=0;" parent="1" edge="1">
          <mxGeometry width="50" height="50" relative="1" as="geometry">
            <mxPoint x="1560" y="289" as="sourcePoint" />
            <mxPoint x="1480" y="289" as="targetPoint" />
          </mxGeometry>
        </mxCell>
        <mxCell id="W-EiwBfrbXmSW31yWyGR-20" value="Intelligent analysis of fitness movements" style="ellipse;whiteSpace=wrap;html=1;" parent="1" vertex="1">
          <mxGeometry x="1180" y="194" width="150" height="50" as="geometry" />
        </mxCell>
        <mxCell id="W-EiwBfrbXmSW31yWyGR-22" value="Review the legality of the content" style="ellipse;whiteSpace=wrap;html=1;" parent="1" vertex="1">
          <mxGeometry x="1330" y="264" width="150" height="50" as="geometry" />
        </mxCell>
        <mxCell id="W-EiwBfrbXmSW31yWyGR-24" value="Unlimited usage times" style="text;html=1;align=center;verticalAlign=middle;resizable=0;points=[];autosize=1;strokeColor=none;fillColor=none;" parent="1" vertex="1">
          <mxGeometry x="1140" y="329" width="140" height="30" as="geometry" />
        </mxCell>
        <mxCell id="W-EiwBfrbXmSW31yWyGR-25" value="Use up to 5 times a day" style="text;whiteSpace=wrap;" parent="1" vertex="1">
          <mxGeometry x="1060" y="189" width="130" height="20" as="geometry" />
        </mxCell>
        <mxCell id="W-EiwBfrbXmSW31yWyGR-28" value="" style="endArrow=openThin;html=1;rounded=0;exitX=1;exitY=1;exitDx=0;exitDy=0;entryX=0.5;entryY=0;entryDx=0;entryDy=0;dashed=1;endFill=0;" parent="1" source="W-EiwBfrbXmSW31yWyGR-20" target="W-EiwBfrbXmSW31yWyGR-22" edge="1">
          <mxGeometry width="50" height="50" relative="1" as="geometry">
            <mxPoint x="1270" y="309" as="sourcePoint" />
            <mxPoint x="1320" y="259" as="targetPoint" />
          </mxGeometry>
        </mxCell>
        <mxCell id="W-EiwBfrbXmSW31yWyGR-29" value="&amp;lt;&amp;lt;include&amp;gt;&amp;gt;" style="text;html=1;align=center;verticalAlign=middle;resizable=0;points=[];autosize=1;strokeColor=none;fillColor=none;" parent="1" vertex="1">
          <mxGeometry x="1330" y="224" width="90" height="30" as="geometry" />
        </mxCell>
        <mxCell id="vUam5XG3Os9N0VYCoi5R-13" value="" style="rounded=0;whiteSpace=wrap;html=1;fillColor=none;" parent="1" vertex="1">
          <mxGeometry x="1100" y="-10" width="220" height="100" as="geometry" />
        </mxCell>
        <mxCell id="vUam5XG3Os9N0VYCoi5R-14" value="Schedule punch in" style="ellipse;whiteSpace=wrap;html=1;" parent="1" vertex="1">
          <mxGeometry x="1135" y="20" width="150" height="50" as="geometry" />
        </mxCell>
        <mxCell id="vUam5XG3Os9N0VYCoi5R-15" value="Fitness Tutorial System" style="text;whiteSpace=wrap;" parent="1" vertex="1">
          <mxGeometry x="1145" y="-10" width="130" height="20" as="geometry" />
        </mxCell>
        <mxCell id="vUam5XG3Os9N0VYCoi5R-16" value="" style="endArrow=none;html=1;rounded=0;entryX=0;entryY=1;entryDx=0;entryDy=0;" parent="1" target="vUam5XG3Os9N0VYCoi5R-14" edge="1">
          <mxGeometry width="50" height="50" relative="1" as="geometry">
            <mxPoint x="1050" y="219" as="sourcePoint" />
            <mxPoint x="1310" y="29" as="targetPoint" />
          </mxGeometry>
        </mxCell>
        <mxCell id="vUam5XG3Os9N0VYCoi5R-17" value="" style="endArrow=openThin;html=1;rounded=0;exitX=0.5;exitY=1;exitDx=0;exitDy=0;entryX=0.5;entryY=0;entryDx=0;entryDy=0;dashed=1;endFill=0;" parent="1" source="vUam5XG3Os9N0VYCoi5R-14" target="W-EiwBfrbXmSW31yWyGR-20" edge="1">
          <mxGeometry width="50" height="50" relative="1" as="geometry">
            <mxPoint x="1520" y="43" as="sourcePoint" />
            <mxPoint x="1617" y="70" as="targetPoint" />
          </mxGeometry>
        </mxCell>
        <mxCell id="vUam5XG3Os9N0VYCoi5R-18" value="&amp;lt;&amp;lt;include&amp;gt;&amp;gt;" style="text;html=1;align=center;verticalAlign=middle;resizable=0;points=[];autosize=1;strokeColor=none;fillColor=none;" parent="1" vertex="1">
          <mxGeometry x="1224" y="100" width="90" height="30" as="geometry" />
        </mxCell>
        <mxCell id="vUam5XG3Os9N0VYCoi5R-19" value="There are no usage restrictions within the tutorial" style="text;html=1;align=center;verticalAlign=middle;resizable=0;points=[];autosize=1;strokeColor=none;fillColor=none;" parent="1" vertex="1">
          <mxGeometry x="1230" y="119" width="280" height="30" as="geometry" />
        </mxCell>
        <mxCell id="Eo8Ja9VmBqhK7dcrzEYe-1" value="" style="edgeStyle=orthogonalEdgeStyle;rounded=0;orthogonalLoop=1;jettySize=auto;html=1;exitX=0;exitY=0.3333333333333333;exitDx=0;exitDy=0;exitPerimeter=0;" parent="1" source="Eo8Ja9VmBqhK7dcrzEYe-2" target="Eo8Ja9VmBqhK7dcrzEYe-20" edge="1">
          <mxGeometry relative="1" as="geometry" />
        </mxCell>
        <mxCell id="Eo8Ja9VmBqhK7dcrzEYe-2" value="Administrator" style="shape=umlActor;verticalLabelPosition=bottom;verticalAlign=top;html=1;outlineConnect=0;" parent="1" vertex="1">
          <mxGeometry x="791" y="464.5" width="30" height="60" as="geometry" />
        </mxCell>
        <mxCell id="Eo8Ja9VmBqhK7dcrzEYe-3" value="User" style="shape=umlActor;verticalLabelPosition=bottom;verticalAlign=top;html=1;outlineConnect=0;" parent="1" vertex="1">
          <mxGeometry x="90" y="340" width="30" height="60" as="geometry" />
        </mxCell>
        <mxCell id="Eo8Ja9VmBqhK7dcrzEYe-4" value="Uploader" style="shape=umlActor;verticalLabelPosition=bottom;verticalAlign=top;html=1;outlineConnect=0;" parent="1" vertex="1">
          <mxGeometry x="90" y="504.5" width="30" height="60" as="geometry" />
        </mxCell>
        <mxCell id="Eo8Ja9VmBqhK7dcrzEYe-5" value="" style="endArrow=block;endSize=15;endFill=0;html=1;rounded=0;exitX=0.5;exitY=0;exitDx=0;exitDy=0;exitPerimeter=0;" parent="1" source="Eo8Ja9VmBqhK7dcrzEYe-4" edge="1">
          <mxGeometry width="160" relative="1" as="geometry">
            <mxPoint x="220" y="390" as="sourcePoint" />
            <mxPoint x="105" y="430" as="targetPoint" />
          </mxGeometry>
        </mxCell>
        <mxCell id="Eo8Ja9VmBqhK7dcrzEYe-6" value="" style="endArrow=block;endSize=15;endFill=0;html=1;rounded=0;" parent="1" edge="1">
          <mxGeometry width="160" relative="1" as="geometry">
            <mxPoint x="104" y="260" as="sourcePoint" />
            <mxPoint x="104" y="330" as="targetPoint" />
          </mxGeometry>
        </mxCell>
        <mxCell id="Eo8Ja9VmBqhK7dcrzEYe-7" value="Release tutorial" style="ellipse;whiteSpace=wrap;html=1;" parent="1" vertex="1">
          <mxGeometry x="200" y="490" width="140" height="40" as="geometry" />
        </mxCell>
        <mxCell id="Eo8Ja9VmBqhK7dcrzEYe-8" value="Buy tutorials" style="ellipse;whiteSpace=wrap;html=1;" parent="1" vertex="1">
          <mxGeometry x="210" y="290" width="140" height="40" as="geometry" />
        </mxCell>
        <mxCell id="Eo8Ja9VmBqhK7dcrzEYe-9" value="Quit tutorials" style="ellipse;whiteSpace=wrap;html=1;" parent="1" vertex="1">
          <mxGeometry x="420" y="340" width="140" height="40" as="geometry" />
        </mxCell>
        <mxCell id="Eo8Ja9VmBqhK7dcrzEYe-10" value="Get rewards" style="ellipse;whiteSpace=wrap;html=1;" parent="1" vertex="1">
          <mxGeometry x="600" y="270" width="140" height="40" as="geometry" />
        </mxCell>
        <mxCell id="Eo8Ja9VmBqhK7dcrzEYe-11" value="Schedule punch in" style="ellipse;whiteSpace=wrap;html=1;" parent="1" vertex="1">
          <mxGeometry x="410" y="270" width="140" height="40" as="geometry" />
        </mxCell>
        <mxCell id="Eo8Ja9VmBqhK7dcrzEYe-12" value="" style="endArrow=open;endFill=1;endSize=12;html=1;rounded=0;exitX=0.75;exitY=0.1;exitDx=0;exitDy=0;exitPerimeter=0;entryX=0;entryY=0.5;entryDx=0;entryDy=0;" parent="1" source="Eo8Ja9VmBqhK7dcrzEYe-4" target="Eo8Ja9VmBqhK7dcrzEYe-7" edge="1">
          <mxGeometry width="160" relative="1" as="geometry">
            <mxPoint x="620" y="260" as="sourcePoint" />
            <mxPoint x="780" y="260" as="targetPoint" />
          </mxGeometry>
        </mxCell>
        <mxCell id="Eo8Ja9VmBqhK7dcrzEYe-13" value="" style="endArrow=open;endFill=1;endSize=12;html=1;rounded=0;exitX=1;exitY=0.3333333333333333;exitDx=0;exitDy=0;exitPerimeter=0;entryX=0;entryY=1;entryDx=0;entryDy=0;" parent="1" source="Eo8Ja9VmBqhK7dcrzEYe-3" target="Eo8Ja9VmBqhK7dcrzEYe-8" edge="1">
          <mxGeometry width="160" relative="1" as="geometry">
            <mxPoint x="200" y="320" as="sourcePoint" />
            <mxPoint x="360" y="260" as="targetPoint" />
          </mxGeometry>
        </mxCell>
        <mxCell id="Eo8Ja9VmBqhK7dcrzEYe-14" value="Browse the tutorial" style="ellipse;whiteSpace=wrap;html=1;" parent="1" vertex="1">
          <mxGeometry x="230" y="390" width="140" height="40" as="geometry" />
        </mxCell>
        <mxCell id="Eo8Ja9VmBqhK7dcrzEYe-15" value="" style="endArrow=open;endFill=1;endSize=12;html=1;rounded=0;exitX=1;exitY=0.3333333333333333;exitDx=0;exitDy=0;exitPerimeter=0;" parent="1" source="Eo8Ja9VmBqhK7dcrzEYe-3" target="Eo8Ja9VmBqhK7dcrzEYe-14" edge="1">
          <mxGeometry width="160" relative="1" as="geometry">
            <mxPoint x="240" y="290" as="sourcePoint" />
            <mxPoint x="350" y="348" as="targetPoint" />
          </mxGeometry>
        </mxCell>
        <mxCell id="Eo8Ja9VmBqhK7dcrzEYe-16" value="&amp;lt;&amp;lt;include&amp;gt;&amp;gt;" style="endArrow=open;endSize=12;dashed=1;html=1;rounded=0;exitX=0.5;exitY=1;exitDx=0;exitDy=0;entryX=0.5;entryY=0;entryDx=0;entryDy=0;" parent="1" source="Eo8Ja9VmBqhK7dcrzEYe-7" target="Eo8Ja9VmBqhK7dcrzEYe-27" edge="1">
          <mxGeometry x="-0.0333" y="40" width="160" relative="1" as="geometry">
            <mxPoint x="279.78" y="515.9999999999999" as="sourcePoint" />
            <mxPoint x="280" y="580" as="targetPoint" />
            <mxPoint as="offset" />
          </mxGeometry>
        </mxCell>
        <mxCell id="Eo8Ja9VmBqhK7dcrzEYe-17" value="&amp;lt;&amp;lt;include&amp;gt;&amp;gt;" style="endArrow=open;endSize=12;dashed=1;html=1;rounded=0;entryX=0;entryY=0.5;entryDx=0;entryDy=0;exitX=1;exitY=0;exitDx=0;exitDy=0;" parent="1" source="Eo8Ja9VmBqhK7dcrzEYe-8" target="Eo8Ja9VmBqhK7dcrzEYe-11" edge="1">
          <mxGeometry x="-0.1458" y="25" width="160" relative="1" as="geometry">
            <mxPoint x="520" y="500.9999999999999" as="sourcePoint" />
            <mxPoint x="520" y="561" as="targetPoint" />
            <mxPoint as="offset" />
          </mxGeometry>
        </mxCell>
        <mxCell id="Eo8Ja9VmBqhK7dcrzEYe-18" value="&amp;lt;&amp;lt;include&amp;gt;&amp;gt;" style="endArrow=open;endSize=12;dashed=1;html=1;rounded=0;entryX=0;entryY=0.5;entryDx=0;entryDy=0;exitX=1;exitY=1;exitDx=0;exitDy=0;" parent="1" source="Eo8Ja9VmBqhK7dcrzEYe-8" target="Eo8Ja9VmBqhK7dcrzEYe-9" edge="1">
          <mxGeometry x="-0.0464" y="-22" width="160" relative="1" as="geometry">
            <mxPoint x="450" y="348" as="sourcePoint" />
            <mxPoint x="560" y="315" as="targetPoint" />
            <mxPoint as="offset" />
          </mxGeometry>
        </mxCell>
        <mxCell id="Eo8Ja9VmBqhK7dcrzEYe-19" value="&amp;lt;&amp;lt;include&amp;gt;&amp;gt;" style="endArrow=open;endSize=12;dashed=1;html=1;rounded=0;entryX=0;entryY=0.5;entryDx=0;entryDy=0;exitX=1;exitY=0.5;exitDx=0;exitDy=0;" parent="1" source="Eo8Ja9VmBqhK7dcrzEYe-11" target="Eo8Ja9VmBqhK7dcrzEYe-10" edge="1">
          <mxGeometry x="0.0667" y="-25" width="160" relative="1" as="geometry">
            <mxPoint x="450" y="383" as="sourcePoint" />
            <mxPoint x="520" y="385" as="targetPoint" />
            <mxPoint as="offset" />
          </mxGeometry>
        </mxCell>
        <mxCell id="Eo8Ja9VmBqhK7dcrzEYe-20" value="&lt;p class=&quot;MsoNormal&quot;&gt;&lt;span style=&quot;mso-spacerun:&#39;yes&#39;;font-family:宋体;mso-ascii-font-family:Calibri;&lt;br/&gt;mso-hansi-font-family:Calibri;mso-bidi-font-family:&#39;Times New Roman&#39;;font-size:10.5000pt;&lt;br/&gt;mso-font-kerning:1.0000pt;&quot;&gt;&lt;font face=&quot;Calibri&quot;&gt;Examine&amp;nbsp;&lt;/font&gt;&lt;/span&gt;&lt;/p&gt;" style="ellipse;whiteSpace=wrap;html=1;" parent="1" vertex="1">
          <mxGeometry x="500" y="464.5" width="140" height="40" as="geometry" />
        </mxCell>
        <mxCell id="Eo8Ja9VmBqhK7dcrzEYe-21" value="&lt;p class=&quot;MsoNormal&quot;&gt;&lt;font face=&quot;Calibri&quot;&gt;&lt;span style=&quot;font-size: 14px;&quot;&gt;Announce&lt;/span&gt;&lt;/font&gt;&lt;br&gt;&lt;/p&gt;" style="ellipse;whiteSpace=wrap;html=1;" parent="1" vertex="1">
          <mxGeometry x="500" y="390" width="140" height="40" as="geometry" />
        </mxCell>
        <mxCell id="Eo8Ja9VmBqhK7dcrzEYe-22" value="&lt;p class=&quot;MsoNormal&quot;&gt;&lt;font face=&quot;Calibri&quot;&gt;&lt;span style=&quot;font-size: 14px;&quot;&gt;Examine new tutorial&lt;/span&gt;&lt;/font&gt;&lt;br&gt;&lt;/p&gt;" style="ellipse;whiteSpace=wrap;html=1;" parent="1" vertex="1">
          <mxGeometry x="580" y="560" width="140" height="40" as="geometry" />
        </mxCell>
        <mxCell id="Eo8Ja9VmBqhK7dcrzEYe-23" value="&lt;p class=&quot;MsoNormal&quot;&gt;&lt;font face=&quot;Calibri&quot;&gt;&lt;span style=&quot;font-size: 14px;&quot;&gt;Examine comments&lt;/span&gt;&lt;/font&gt;&lt;/p&gt;" style="ellipse;whiteSpace=wrap;html=1;" parent="1" vertex="1">
          <mxGeometry x="410" y="560" width="140" height="40" as="geometry" />
        </mxCell>
        <mxCell id="Eo8Ja9VmBqhK7dcrzEYe-24" value="" style="endArrow=block;endSize=15;endFill=0;html=1;rounded=0;exitX=0.5;exitY=0;exitDx=0;exitDy=0;entryX=0.699;entryY=0.958;entryDx=0;entryDy=0;entryPerimeter=0;" parent="1" source="Eo8Ja9VmBqhK7dcrzEYe-22" target="Eo8Ja9VmBqhK7dcrzEYe-20" edge="1">
          <mxGeometry width="160" relative="1" as="geometry">
            <mxPoint x="75" y="500" as="sourcePoint" />
            <mxPoint x="100" y="410" as="targetPoint" />
          </mxGeometry>
        </mxCell>
        <mxCell id="Eo8Ja9VmBqhK7dcrzEYe-25" value="" style="endArrow=block;endSize=15;endFill=0;html=1;rounded=0;exitX=0.5;exitY=0;exitDx=0;exitDy=0;entryX=0;entryY=1;entryDx=0;entryDy=0;" parent="1" source="Eo8Ja9VmBqhK7dcrzEYe-23" target="Eo8Ja9VmBqhK7dcrzEYe-20" edge="1">
          <mxGeometry width="160" relative="1" as="geometry">
            <mxPoint x="85" y="510" as="sourcePoint" />
            <mxPoint x="520" y="560" as="targetPoint" />
          </mxGeometry>
        </mxCell>
        <mxCell id="Eo8Ja9VmBqhK7dcrzEYe-26" value="" style="endArrow=open;endFill=1;endSize=12;html=1;rounded=0;exitX=0.25;exitY=0.1;exitDx=0;exitDy=0;exitPerimeter=0;entryX=1;entryY=1;entryDx=0;entryDy=0;" parent="1" source="Eo8Ja9VmBqhK7dcrzEYe-2" target="Eo8Ja9VmBqhK7dcrzEYe-21" edge="1">
          <mxGeometry width="160" relative="1" as="geometry">
            <mxPoint x="163" y="506" as="sourcePoint" />
            <mxPoint x="220" y="506" as="targetPoint" />
          </mxGeometry>
        </mxCell>
        <mxCell id="Eo8Ja9VmBqhK7dcrzEYe-27" value="Get revenue" style="ellipse;whiteSpace=wrap;html=1;" parent="1" vertex="1">
          <mxGeometry x="200" y="560" width="140" height="40" as="geometry" />
        </mxCell>
        <mxCell id="Eo8Ja9VmBqhK7dcrzEYe-28" value="Uploader" style="shape=umlActor;verticalLabelPosition=bottom;verticalAlign=top;html=1;outlineConnect=0;" parent="1" vertex="1">
          <mxGeometry x="90" y="180" width="30" height="60" as="geometry" />
        </mxCell>
        <mxCell id="Eo8Ja9VmBqhK7dcrzEYe-29" value="Get discount" style="ellipse;whiteSpace=wrap;html=1;" parent="1" vertex="1">
          <mxGeometry x="210" y="180" width="140" height="40" as="geometry" />
        </mxCell>
        <mxCell id="Eo8Ja9VmBqhK7dcrzEYe-30" value="" style="endArrow=open;endFill=1;endSize=12;html=1;rounded=0;exitX=1;exitY=0.3333333333333333;exitDx=0;exitDy=0;exitPerimeter=0;entryX=0;entryY=0.5;entryDx=0;entryDy=0;" parent="1" source="Eo8Ja9VmBqhK7dcrzEYe-28" target="Eo8Ja9VmBqhK7dcrzEYe-29" edge="1">
          <mxGeometry width="160" relative="1" as="geometry">
            <mxPoint x="130" y="370" as="sourcePoint" />
            <mxPoint x="241" y="334" as="targetPoint" />
          </mxGeometry>
        </mxCell>
        <mxCell id="Eo8Ja9VmBqhK7dcrzEYe-31" value="&amp;lt;&amp;lt;extend&amp;gt;&amp;gt;" style="endArrow=open;endSize=12;dashed=1;html=1;rounded=0;entryX=0.5;entryY=0;entryDx=0;entryDy=0;exitX=0.5;exitY=1;exitDx=0;exitDy=0;" parent="1" source="Eo8Ja9VmBqhK7dcrzEYe-29" target="Eo8Ja9VmBqhK7dcrzEYe-8" edge="1">
          <mxGeometry x="-0.1429" y="-40" width="160" relative="1" as="geometry">
            <mxPoint x="339" y="334" as="sourcePoint" />
            <mxPoint x="430" y="370" as="targetPoint" />
            <mxPoint as="offset" />
          </mxGeometry>
        </mxCell>
        <mxCell id="Eo8Ja9VmBqhK7dcrzEYe-32" value="" style="whiteSpace=wrap;html=1;aspect=fixed;opacity=0;strokeColor=default;align=center;verticalAlign=middle;fontFamily=Helvetica;fontSize=12;fontColor=default;fillColor=default;" parent="1" vertex="1">
          <mxGeometry x="530" y="400" width="80" height="80" as="geometry" />
        </mxCell>
        <mxCell id="Eo8Ja9VmBqhK7dcrzEYe-33" value="" style="rounded=0;whiteSpace=wrap;html=1;opacity=0;strokeColor=default;align=center;verticalAlign=middle;fontFamily=Helvetica;fontSize=12;fontColor=default;fillColor=default;" parent="1" vertex="1">
          <mxGeometry x="510" y="410" width="120" height="60" as="geometry" />
        </mxCell>
        <mxCell id="Eo8Ja9VmBqhK7dcrzEYe-34" value="" style="endArrow=none;html=1;rounded=0;fontFamily=Helvetica;fontSize=12;fontColor=default;" parent="1" edge="1">
          <mxGeometry width="50" height="50" relative="1" as="geometry">
            <mxPoint x="180" y="630" as="sourcePoint" />
            <mxPoint x="760" y="630" as="targetPoint" />
          </mxGeometry>
        </mxCell>
        <mxCell id="Eo8Ja9VmBqhK7dcrzEYe-35" value="" style="endArrow=none;html=1;rounded=0;fontFamily=Helvetica;fontSize=12;fontColor=default;" parent="1" edge="1">
          <mxGeometry width="50" height="50" relative="1" as="geometry">
            <mxPoint x="180" y="149" as="sourcePoint" />
            <mxPoint x="760" y="149" as="targetPoint" />
          </mxGeometry>
        </mxCell>
        <mxCell id="Eo8Ja9VmBqhK7dcrzEYe-36" value="" style="endArrow=none;html=1;rounded=0;fontFamily=Helvetica;fontSize=12;fontColor=default;" parent="1" edge="1">
          <mxGeometry width="50" height="50" relative="1" as="geometry">
            <mxPoint x="180" y="150" as="sourcePoint" />
            <mxPoint x="180" y="630" as="targetPoint" />
          </mxGeometry>
        </mxCell>
        <mxCell id="Eo8Ja9VmBqhK7dcrzEYe-37" value="" style="endArrow=none;html=1;rounded=0;fontFamily=Helvetica;fontSize=12;fontColor=default;" parent="1" edge="1">
          <mxGeometry width="50" height="50" relative="1" as="geometry">
            <mxPoint x="760" y="150" as="sourcePoint" />
            <mxPoint x="760" y="630" as="targetPoint" />
          </mxGeometry>
        </mxCell>
        <mxCell id="Eo8Ja9VmBqhK7dcrzEYe-38" value="Intelligent analysis of fitness movements" style="ellipse;whiteSpace=wrap;html=1;" parent="1" vertex="1">
          <mxGeometry x="560" y="50" width="140" height="40" as="geometry" />
        </mxCell>
        <mxCell id="Eo8Ja9VmBqhK7dcrzEYe-39" value="&amp;lt;&amp;lt;include&amp;gt;&amp;gt;" style="endArrow=open;endSize=12;dashed=1;html=1;rounded=0;entryX=0;entryY=1;entryDx=0;entryDy=0;exitX=0.5;exitY=0;exitDx=0;exitDy=0;" parent="1" source="Eo8Ja9VmBqhK7dcrzEYe-11" target="Eo8Ja9VmBqhK7dcrzEYe-38" edge="1">
          <mxGeometry x="0.0667" y="-25" width="160" relative="1" as="geometry">
            <mxPoint x="560" y="300" as="sourcePoint" />
            <mxPoint x="610" y="300" as="targetPoint" />
            <mxPoint as="offset" />
          </mxGeometry>
        </mxCell>
        <mxCell id="Eo8Ja9VmBqhK7dcrzEYe-40" value="" style="rounded=0;whiteSpace=wrap;html=1;fillColor=none;" parent="1" vertex="1">
          <mxGeometry x="500" width="260" height="110" as="geometry" />
        </mxCell>
        <mxCell id="Eo8Ja9VmBqhK7dcrzEYe-41" value="&lt;span style=&quot;color: rgb(0, 0, 0); font-family: Helvetica; font-size: 12px; font-style: normal; font-variant-ligatures: normal; font-variant-caps: normal; font-weight: 400; letter-spacing: normal; orphans: 2; text-align: center; text-indent: 0px; text-transform: none; widows: 2; word-spacing: 0px; -webkit-text-stroke-width: 0px; background-color: rgb(251, 251, 251); text-decoration-thickness: initial; text-decoration-style: initial; text-decoration-color: initial; float: none; display: inline !important;&quot;&gt;Intelligent Fitness Movement Analysis System&lt;/span&gt;" style="text;whiteSpace=wrap;html=1;" parent="1" vertex="1">
          <mxGeometry x="505" width="250" height="40" as="geometry" />
        </mxCell>
        <mxCell id="Eo8Ja9VmBqhK7dcrzEYe-42" value="Recommended fitness equipment by the system" style="ellipse;whiteSpace=wrap;html=1;" parent="1" vertex="1">
          <mxGeometry x="250" y="30" width="150" height="60" as="geometry" />
        </mxCell>
        <mxCell id="Eo8Ja9VmBqhK7dcrzEYe-43" value="" style="rounded=0;whiteSpace=wrap;html=1;fillColor=none;" parent="1" vertex="1">
          <mxGeometry x="210" width="230" height="110" as="geometry" />
        </mxCell>
        <mxCell id="Eo8Ja9VmBqhK7dcrzEYe-44" value="&lt;span style=&quot;color: rgb(0, 0, 0); font-family: Helvetica; font-size: 12px; font-style: normal; font-variant-ligatures: normal; font-variant-caps: normal; font-weight: 400; letter-spacing: normal; orphans: 2; text-align: center; text-indent: 0px; text-transform: none; widows: 2; word-spacing: 0px; -webkit-text-stroke-width: 0px; background-color: rgb(251, 251, 251); text-decoration-thickness: initial; text-decoration-style: initial; text-decoration-color: initial; float: none; display: inline !important;&quot;&gt;Fitness equipment system&lt;/span&gt;" style="text;whiteSpace=wrap;html=1;" parent="1" vertex="1">
          <mxGeometry x="240" width="170" height="40" as="geometry" />
        </mxCell>
        <mxCell id="Eo8Ja9VmBqhK7dcrzEYe-45" value="&amp;lt;&amp;lt;include&amp;gt;&amp;gt;" style="endArrow=open;endSize=12;dashed=1;html=1;rounded=0;exitX=0;exitY=0;exitDx=0;exitDy=0;entryX=0.5;entryY=1;entryDx=0;entryDy=0;" parent="1" source="Eo8Ja9VmBqhK7dcrzEYe-11" target="Eo8Ja9VmBqhK7dcrzEYe-42" edge="1">
          <mxGeometry x="0.0667" y="-25" width="160" relative="1" as="geometry">
            <mxPoint x="490" y="280" as="sourcePoint" />
            <mxPoint x="591" y="94" as="targetPoint" />
            <mxPoint as="offset" />
          </mxGeometry>
        </mxCell>
        <mxCell id="Eo8Ja9VmBqhK7dcrzEYe-46" value="" style="rounded=0;whiteSpace=wrap;html=1;fillColor=none;" parent="1" vertex="1">
          <mxGeometry x="1960" y="110" width="400" height="310" as="geometry" />
        </mxCell>
        <mxCell id="Eo8Ja9VmBqhK7dcrzEYe-47" value="User" style="shape=umlActor;verticalLabelPosition=bottom;verticalAlign=top;html=1;" parent="1" vertex="1">
          <mxGeometry x="1860" y="170" width="30" height="60" as="geometry" />
        </mxCell>
        <mxCell id="Eo8Ja9VmBqhK7dcrzEYe-48" style="edgeStyle=orthogonalEdgeStyle;rounded=0;orthogonalLoop=1;jettySize=auto;html=1;exitX=0.5;exitY=0;exitDx=0;exitDy=0;exitPerimeter=0;endArrow=block;endFill=0;endSize=15;" parent="1" source="Eo8Ja9VmBqhK7dcrzEYe-49" edge="1">
          <mxGeometry relative="1" as="geometry">
            <mxPoint x="1875" y="260" as="targetPoint" />
          </mxGeometry>
        </mxCell>
        <mxCell id="Eo8Ja9VmBqhK7dcrzEYe-49" value="VIP" style="shape=umlActor;verticalLabelPosition=bottom;verticalAlign=top;html=1;" parent="1" vertex="1">
          <mxGeometry x="1860" y="350" width="30" height="60" as="geometry" />
        </mxCell>
        <mxCell id="Eo8Ja9VmBqhK7dcrzEYe-50" value="" style="html=1;verticalAlign=bottom;endArrow=none;curved=0;rounded=0;endFill=0;entryX=0;entryY=0.5;entryDx=0;entryDy=0;" parent="1" edge="1">
          <mxGeometry width="80" relative="1" as="geometry">
            <mxPoint x="1900" y="200" as="sourcePoint" />
            <mxPoint x="1990" y="200" as="targetPoint" />
          </mxGeometry>
        </mxCell>
        <mxCell id="Eo8Ja9VmBqhK7dcrzEYe-51" value="" style="endArrow=none;html=1;rounded=0;endFill=0;" parent="1" edge="1">
          <mxGeometry width="50" height="50" relative="1" as="geometry">
            <mxPoint x="1900" y="380" as="sourcePoint" />
            <mxPoint x="1990" y="380" as="targetPoint" />
          </mxGeometry>
        </mxCell>
        <mxCell id="Eo8Ja9VmBqhK7dcrzEYe-52" value="" style="endArrow=openThin;html=1;rounded=0;exitX=0.5;exitY=0;exitDx=0;exitDy=0;dashed=1;endFill=0;entryX=0.5;entryY=1;entryDx=0;entryDy=0;endSize=12;" parent="1" source="Eo8Ja9VmBqhK7dcrzEYe-59" target="Eo8Ja9VmBqhK7dcrzEYe-58" edge="1">
          <mxGeometry width="50" height="50" relative="1" as="geometry">
            <mxPoint x="2050" y="345" as="sourcePoint" />
            <mxPoint x="2050" y="235" as="targetPoint" />
          </mxGeometry>
        </mxCell>
        <mxCell id="Eo8Ja9VmBqhK7dcrzEYe-53" value="&amp;lt;&amp;lt;extend&amp;gt;&amp;gt;" style="text;html=1;align=center;verticalAlign=middle;resizable=0;points=[];autosize=1;strokeColor=none;fillColor=none;" parent="1" vertex="1">
          <mxGeometry x="1980" y="270" width="90" height="30" as="geometry" />
        </mxCell>
        <mxCell id="Eo8Ja9VmBqhK7dcrzEYe-54" value="administrator" style="shape=umlActor;verticalLabelPosition=bottom;verticalAlign=top;html=1;outlineConnect=0;" parent="1" vertex="1">
          <mxGeometry x="2420" y="240" width="30" height="60" as="geometry" />
        </mxCell>
        <mxCell id="Eo8Ja9VmBqhK7dcrzEYe-55" value="" style="endArrow=none;html=1;rounded=0;entryX=1;entryY=0.5;entryDx=0;entryDy=0;endFill=0;" parent="1" edge="1">
          <mxGeometry width="50" height="50" relative="1" as="geometry">
            <mxPoint x="2410" y="270" as="sourcePoint" />
            <mxPoint x="2330" y="270" as="targetPoint" />
          </mxGeometry>
        </mxCell>
        <mxCell id="Eo8Ja9VmBqhK7dcrzEYe-56" value="" style="endArrow=openThin;html=1;rounded=0;exitX=0;exitY=0;exitDx=0;exitDy=0;dashed=1;endFill=0;entryX=1;entryY=1;entryDx=0;entryDy=0;endSize=12;" parent="1" edge="1">
          <mxGeometry width="50" height="50" relative="1" as="geometry">
            <mxPoint x="2227.5735931288073" y="245.25126265847075" as="sourcePoint" />
            <mxPoint x="2092.4264068711927" y="224.74873734152925" as="targetPoint" />
          </mxGeometry>
        </mxCell>
        <mxCell id="Eo8Ja9VmBqhK7dcrzEYe-57" value="&amp;lt;&amp;lt;include&amp;gt;&amp;gt;" style="text;html=1;align=center;verticalAlign=middle;resizable=0;points=[];autosize=1;strokeColor=none;fillColor=none;" parent="1" vertex="1">
          <mxGeometry x="2130" y="205" width="90" height="30" as="geometry" />
        </mxCell>
        <mxCell id="Eo8Ja9VmBqhK7dcrzEYe-58" value="View the basic usage of fitness equipment" style="ellipse;whiteSpace=wrap;html=1;" parent="1" vertex="1">
          <mxGeometry x="1990" y="175" width="150" height="50" as="geometry" />
        </mxCell>
        <mxCell id="Eo8Ja9VmBqhK7dcrzEYe-59" value="Fitness equipment AI intelligent Q&amp;amp;A" style="ellipse;whiteSpace=wrap;html=1;" parent="1" vertex="1">
          <mxGeometry x="1990" y="355" width="150" height="50" as="geometry" />
        </mxCell>
        <mxCell id="Eo8Ja9VmBqhK7dcrzEYe-60" value="Manage fitness equipment information" style="ellipse;whiteSpace=wrap;html=1;" parent="1" vertex="1">
          <mxGeometry x="2180" y="245" width="150" height="50" as="geometry" />
        </mxCell>
        <mxCell id="Eo8Ja9VmBqhK7dcrzEYe-61" value="Fitness equipment system" style="text;html=1;align=center;verticalAlign=middle;resizable=0;points=[];autosize=1;strokeColor=none;fillColor=none;" parent="1" vertex="1">
          <mxGeometry x="2140" y="330" width="160" height="30" as="geometry" />
        </mxCell>
        <mxCell id="Eo8Ja9VmBqhK7dcrzEYe-62" value="" style="rounded=0;whiteSpace=wrap;html=1;fillColor=none;" parent="1" vertex="1">
          <mxGeometry x="1915" y="-30" width="220" height="100" as="geometry" />
        </mxCell>
        <mxCell id="Eo8Ja9VmBqhK7dcrzEYe-63" value="Fitness Tutorial System" style="text;whiteSpace=wrap;" parent="1" vertex="1">
          <mxGeometry x="1960" y="-30" width="130" height="20" as="geometry" />
        </mxCell>
        <mxCell id="Eo8Ja9VmBqhK7dcrzEYe-64" value="Schedule punch in" style="ellipse;whiteSpace=wrap;html=1;" parent="1" vertex="1">
          <mxGeometry x="1950" width="150" height="50" as="geometry" />
        </mxCell>
        <mxCell id="Eo8Ja9VmBqhK7dcrzEYe-65" value="" style="endArrow=none;html=1;rounded=0;entryX=0;entryY=1;entryDx=0;entryDy=0;" parent="1" target="Eo8Ja9VmBqhK7dcrzEYe-64" edge="1">
          <mxGeometry width="50" height="50" relative="1" as="geometry">
            <mxPoint x="1900" y="200" as="sourcePoint" />
            <mxPoint x="2160" y="140" as="targetPoint" />
          </mxGeometry>
        </mxCell>
        <mxCell id="Eo8Ja9VmBqhK7dcrzEYe-66" value="" style="endArrow=openThin;html=1;rounded=0;exitX=0.5;exitY=1;exitDx=0;exitDy=0;dashed=1;endFill=0;entryX=0.5;entryY=0;entryDx=0;entryDy=0;endSize=12;" parent="1" source="Eo8Ja9VmBqhK7dcrzEYe-64" target="Eo8Ja9VmBqhK7dcrzEYe-67" edge="1">
          <mxGeometry width="50" height="50" relative="1" as="geometry">
            <mxPoint x="2305.143593128807" y="90.50126265847075" as="sourcePoint" />
            <mxPoint x="2169.996406871193" y="69.99873734152925" as="targetPoint" />
          </mxGeometry>
        </mxCell>
        <mxCell id="Eo8Ja9VmBqhK7dcrzEYe-67" value="Recommended fitness equipment by the system" style="ellipse;whiteSpace=wrap;html=1;" parent="1" vertex="1">
          <mxGeometry x="2180" y="125" width="150" height="50" as="geometry" />
        </mxCell>
        <mxCell id="Eo8Ja9VmBqhK7dcrzEYe-68" value="&amp;lt;&amp;lt;include&amp;gt;&amp;gt;" style="text;html=1;align=center;verticalAlign=middle;resizable=0;points=[];autosize=1;strokeColor=none;fillColor=none;" parent="1" vertex="1">
          <mxGeometry x="2135" y="70" width="90" height="30" as="geometry" />
        </mxCell>
        <mxCell id="Eo8Ja9VmBqhK7dcrzEYe-69" value="" style="endArrow=openThin;html=1;rounded=0;exitX=0.5;exitY=1;exitDx=0;exitDy=0;dashed=1;endFill=0;entryX=0.5;entryY=0;entryDx=0;entryDy=0;endSize=12;" parent="1" source="Eo8Ja9VmBqhK7dcrzEYe-67" target="Eo8Ja9VmBqhK7dcrzEYe-58" edge="1">
          <mxGeometry width="50" height="50" relative="1" as="geometry">
            <mxPoint x="2285.003593128807" y="205.00126265847075" as="sourcePoint" />
            <mxPoint x="2149.856406871193" y="184.49873734152925" as="targetPoint" />
          </mxGeometry>
        </mxCell>
        <mxCell id="Eo8Ja9VmBqhK7dcrzEYe-70" value="&amp;lt;&amp;lt;include&amp;gt;&amp;gt;" style="text;html=1;align=center;verticalAlign=middle;resizable=0;points=[];autosize=1;strokeColor=none;fillColor=none;" parent="1" vertex="1">
          <mxGeometry x="2090" y="145" width="90" height="30" as="geometry" />
        </mxCell>
        <mxCell id="Eo8Ja9VmBqhK7dcrzEYe-73" value="" style="rounded=0;whiteSpace=wrap;html=1;fillColor=none;" parent="1" vertex="1">
          <mxGeometry x="40" y="-60" width="820" height="720" as="geometry" />
        </mxCell>
        <mxCell id="Eo8Ja9VmBqhK7dcrzEYe-74" value="Fitness Tutorial System" style="text;html=1;strokeColor=none;fillColor=none;align=center;verticalAlign=middle;whiteSpace=wrap;rounded=0;" parent="1" vertex="1">
          <mxGeometry x="314" y="-60" width="190" height="30" as="geometry" />
        </mxCell>
        <mxCell id="Eo8Ja9VmBqhK7dcrzEYe-75" value="" style="rounded=0;whiteSpace=wrap;html=1;fillColor=none;" parent="1" vertex="1">
          <mxGeometry x="910" y="-60" width="770" height="530" as="geometry" />
        </mxCell>
        <mxCell id="Eo8Ja9VmBqhK7dcrzEYe-76" value="AI Fitness Coach System" style="text;html=1;align=center;verticalAlign=middle;resizable=0;points=[];autosize=1;strokeColor=none;fillColor=none;" parent="1" vertex="1">
          <mxGeometry x="1220" y="-60" width="160" height="30" as="geometry" />
        </mxCell>
        <mxCell id="Eo8Ja9VmBqhK7dcrzEYe-78" value="" style="rounded=0;whiteSpace=wrap;html=1;fillColor=none;" parent="1" vertex="1">
          <mxGeometry x="1760" y="-60" width="780" height="510" as="geometry" />
        </mxCell>
        <mxCell id="Eo8Ja9VmBqhK7dcrzEYe-79" value="Intelligent fitness equipment system" style="text;html=1;strokeColor=none;fillColor=none;align=center;verticalAlign=middle;whiteSpace=wrap;rounded=0;" parent="1" vertex="1">
          <mxGeometry x="2055" y="-60" width="240" height="30" as="geometry" />
        </mxCell>
      </root>
    </mxGraphModel>
  </diagram>
</mxfile>
